# This file uses centimeters as units for non-parametric coordinates.

mtllib DirenniTowerRuinedBottomCollision.mtl
g default
v 26.172200 0.000000 -8.503862
v 22.263403 0.000000 -16.175307
v 16.175307 0.000000 -22.263402
v 8.503861 0.000000 -26.172198
v -0.000000 0.000000 -27.519074
v -8.503861 0.000000 -26.172198
v -16.175307 0.000000 -22.263400
v -22.263400 0.000000 -16.175302
v -26.172190 0.000000 -8.503859
v -27.519067 0.000000 -0.000000
v -26.172190 0.000000 8.503859
v -22.263393 0.000000 16.175301
v -16.175301 0.000000 22.263392
v -8.503859 0.000000 26.172187
v -0.000001 0.000000 27.519067
v 8.503859 0.000000 26.172185
v 16.175297 0.000000 22.263390
v 22.263388 0.000000 16.175299
v 26.172185 0.000000 8.503859
v 27.519060 0.000000 -0.000000
v 26.172200 24.000000 -8.503862
v 22.263403 24.000000 -16.175307
v 16.175307 24.000000 -22.263402
v 8.503861 24.000000 -26.172198
v -0.000000 24.000000 -27.519074
v -8.503861 24.000000 -26.172198
v -16.175307 24.000000 -22.263400
v -22.263400 24.000000 -16.175302
v -26.172190 24.000000 -8.503859
v -27.519067 24.000000 -0.000000
v -26.172190 24.000000 8.503859
v -22.263393 24.000000 16.175301
v -16.175301 24.000000 22.263392
v -8.503859 24.000000 26.172187
v -0.000001 24.000000 27.519067
v 8.503859 24.000000 26.172185
v 16.175297 24.000000 22.263390
v 22.263388 24.000000 16.175299
v 26.172185 24.000000 8.503859
v 27.519060 24.000000 -0.000000
v -0.000000 0.000000 -0.000000
v 17.137025 54.600029 -5.568162
v 14.577619 54.600029 -10.591268
v 10.591261 54.600029 -14.577619
v 5.568154 54.600029 -17.137016
v -0.000001 54.600029 -18.018929
v -5.568154 54.600029 -17.137016
v -10.591261 54.600029 -14.577615
v -14.577617 54.600029 -10.591264
v -17.137013 54.600029 -5.568159
v -18.018924 54.600029 -0.000002
v -17.137013 54.600029 5.568157
v -14.577615 54.600029 10.591261
v -10.591257 54.600029 14.577610
v -5.568154 54.600029 17.137010
v -0.000002 54.600029 18.018921
v 5.568151 54.600029 17.137010
v 10.591252 54.600029 14.577609
v 14.577610 54.600029 10.591257
v 17.137010 54.600029 5.568157
v 18.018918 54.600029 -0.000002
v -5.568154 106.026115 17.137010
v -10.591257 101.080185 14.577610
v -14.577615 100.158554 10.591261
v -17.137013 102.956413 5.568157
v -18.018924 103.261467 -0.000002
v -17.137013 102.343796 -5.568159
v -14.577617 98.143692 -10.591264
v -10.591261 97.567520 -14.577615
v -5.568154 100.608841 -17.137016
v -0.000001 100.951042 -18.018929
v 5.568154 99.543091 -17.137016
v 10.591261 99.963509 -14.577619
v 14.577619 104.064346 -10.591268
v 17.137025 107.106544 -5.568162
v 18.018918 105.530266 -0.000002
v 17.137010 106.187943 5.568157
v 14.577610 110.215141 10.591257
v 10.591252 111.079147 14.577609
v 5.568151 110.755089 17.137010
v -0.000002 109.942993 18.018921
v -0.000000 103.874283 -0.000005
vt 0.648603 0.107966
vt 0.626409 0.064408
vt 0.591842 0.029841
vt 0.548284 0.007647
vt 0.500000 -0.000000
vt 0.451716 0.007647
vt 0.408159 0.029841
vt 0.373591 0.064409
vt 0.351397 0.107966
vt 0.343750 0.156250
vt 0.351397 0.204534
vt 0.373591 0.248091
vt 0.408159 0.282659
vt 0.451716 0.304853
vt 0.500000 0.312500
vt 0.548284 0.304853
vt 0.591841 0.282659
vt 0.626409 0.248091
vt 0.648603 0.204534
vt 0.656250 0.156250
vt 0.375000 0.312500
vt 0.387500 0.312500
vt 0.400000 0.312500
vt 0.412500 0.312500
vt 0.425000 0.312500
vt 0.437500 0.312500
vt 0.450000 0.312500
vt 0.462500 0.312500
vt 0.475000 0.312500
vt 0.487500 0.312500
vt 0.500000 0.312500
vt 0.512500 0.312500
vt 0.525000 0.312500
vt 0.537500 0.312500
vt 0.550000 0.312500
vt 0.562500 0.312500
vt 0.575000 0.312500
vt 0.587500 0.312500
vt 0.600000 0.312500
vt 0.612500 0.312500
vt 0.625000 0.312500
vt 0.375000 0.687500
vt 0.387500 0.687500
vt 0.400000 0.687500
vt 0.412500 0.687500
vt 0.425000 0.687500
vt 0.437500 0.687500
vt 0.450000 0.687500
vt 0.462500 0.687500
vt 0.475000 0.687500
vt 0.487500 0.687500
vt 0.500000 0.687500
vt 0.512500 0.687500
vt 0.525000 0.687500
vt 0.537500 0.687500
vt 0.550000 0.687500
vt 0.562500 0.687500
vt 0.575000 0.687500
vt 0.587500 0.687500
vt 0.600000 0.687500
vt 0.612500 0.687500
vt 0.625000 0.687500
vt 0.648603 0.795466
vt 0.626409 0.751908
vt 0.591842 0.717341
vt 0.548284 0.695147
vt 0.500000 0.687500
vt 0.451716 0.695147
vt 0.408159 0.717341
vt 0.373591 0.751909
vt 0.351397 0.795466
vt 0.343750 0.843750
vt 0.351397 0.892034
vt 0.373591 0.935591
vt 0.408159 0.970159
vt 0.451716 0.992353
vt 0.500000 1.000000
vt 0.548284 0.992353
vt 0.591841 0.970159
vt 0.626409 0.935591
vt 0.648603 0.892034
vt 0.656250 0.843750
vt 0.500000 0.156250
vt 0.648603 0.892034
vt 0.626409 0.935591
vt 0.591841 0.970159
vt 0.548284 0.992353
vt 0.500000 1.000000
vt 0.451716 0.992353
vt 0.408159 0.970159
vt 0.373591 0.935591
vt 0.351397 0.892034
vt 0.343750 0.843750
vt 0.351397 0.795466
vt 0.373591 0.751909
vt 0.408159 0.717341
vt 0.451716 0.695147
vt 0.500000 0.687500
vt 0.548284 0.695147
vt 0.591842 0.717341
vt 0.626409 0.751908
vt 0.648603 0.795466
vt 0.656250 0.843750
vt 0.451716 0.695147
vt 0.408159 0.717341
vt 0.373591 0.751909
vt 0.351397 0.795466
vt 0.343750 0.843750
vt 0.351397 0.892034
vt 0.373591 0.935591
vt 0.408159 0.970159
vt 0.451716 0.992353
vt 0.500000 1.000000
vt 0.548284 0.992353
vt 0.591841 0.970159
vt 0.626409 0.935591
vt 0.648603 0.892034
vt 0.656250 0.843750
vt 0.648603 0.795466
vt 0.626409 0.751908
vt 0.591842 0.717341
vt 0.548284 0.695147
vt 0.500000 0.687500
vt 0.000000 0.000000
vt 1.000000 0.000000
vt 0.500000 1.000000
vt 0.000000 0.000000
vt 1.000000 0.000000
vt 0.500000 1.000000
vt 0.000000 0.000000
vt 1.000000 0.000000
vt 0.500000 1.000000
vt 0.000000 0.000000
vt 1.000000 0.000000
vt 0.500000 1.000000
vt 0.000000 0.000000
vt 1.000000 0.000000
vt 0.500000 1.000000
vt 0.000000 0.000000
vt 1.000000 0.000000
vt 0.500000 1.000000
vt 0.000000 0.000000
vt 1.000000 0.000000
vt 0.500000 1.000000
vt 0.000000 0.000000
vt 1.000000 0.000000
vt 0.500000 1.000000
vt 0.000000 0.000000
vt 1.000000 0.000000
vt 0.500000 1.000000
vt 0.000000 0.000000
vt 1.000000 0.000000
vt 0.500000 1.000000
vt 0.000000 0.000000
vt 1.000000 0.000000
vt 0.500000 1.000000
vt 0.000000 0.000000
vt 1.000000 0.000000
vt 0.500000 1.000000
vt 0.000000 0.000000
vt 1.000000 0.000000
vt 0.500000 1.000000
vt 0.000000 0.000000
vt 1.000000 0.000000
vt 0.500000 1.000000
vt 0.000000 0.000000
vt 1.000000 0.000000
vt 0.500000 1.000000
vt 0.000000 0.000000
vt 1.000000 0.000000
vt 0.500000 1.000000
vt 0.000000 0.000000
vt 1.000000 0.000000
vt 0.500000 1.000000
vt 0.000000 0.000000
vt 1.000000 0.000000
vt 0.500000 1.000000
vt 0.000000 0.000000
vt 1.000000 0.000000
vt 0.500000 1.000000
vt 0.000000 0.000000
vt 1.000000 0.000000
vt 0.500000 1.000000
vn 0.951057 0.000000 -0.309016
vn 0.809017 0.000000 -0.587785
vn 0.798944 0.157311 -0.580467
vn 0.939215 0.157312 -0.305169
vn 0.587785 0.000000 -0.809017
vn 0.580467 0.157312 -0.798944
vn 0.309017 0.000000 -0.951057
vn 0.305169 0.157312 -0.939215
vn 0.000000 0.000000 -1.000000
vn -0.000000 0.157312 -0.987549
vn -0.309017 0.000000 -0.951057
vn -0.305169 0.157312 -0.939215
vn -0.587785 0.000000 -0.809017
vn -0.580467 0.157312 -0.798944
vn -0.809017 0.000000 -0.587785
vn -0.798944 0.157311 -0.580466
vn -0.951057 0.000000 -0.309017
vn -0.939215 0.157312 -0.305169
vn -1.000000 0.000000 0.000000
vn -0.987549 0.157311 -0.000000
vn -0.951056 0.000000 0.309017
vn -0.939215 0.157311 0.305169
vn -0.809017 0.000000 0.587785
vn -0.798944 0.157311 0.580467
vn -0.587785 0.000000 0.809017
vn -0.580467 0.157311 0.798944
vn -0.309017 0.000000 0.951056
vn -0.305170 0.157312 0.939215
vn 0.000000 0.000000 1.000000
vn 0.000000 0.157312 0.987549
vn 0.309017 0.000000 0.951056
vn 0.305170 0.157311 0.939215
vn 0.587785 0.000000 0.809017
vn 0.580467 0.157311 0.798944
vn 0.809017 0.000000 0.587785
vn 0.798944 0.157311 0.580467
vn 0.951057 0.000000 0.309017
vn 0.939215 0.157311 0.305169
vn 1.000000 0.000000 0.000001
vn 0.987549 0.157311 0.000001
vn 0.000000 -1.000000 0.000000
vn 0.000000 -1.000000 0.000000
vn 0.000000 -1.000000 0.000000
vn 0.000000 -1.000000 0.000000
vn 0.000000 -1.000000 0.000000
vn 0.000000 -1.000000 0.000000
vn 0.000000 -1.000000 0.000000
vn 0.000000 -1.000000 0.000000
vn 0.000000 -1.000000 0.000000
vn 0.000000 -1.000000 0.000000
vn 0.000000 -1.000000 0.000000
vn 0.000000 -1.000000 0.000000
vn 0.000000 -1.000000 0.000000
vn 0.000000 -1.000000 0.000000
vn 0.000000 -1.000000 0.000000
vn 0.000000 -1.000000 0.000000
vn 0.000000 -1.000000 0.000000
vn 0.000000 -1.000000 0.000000
vn 0.000000 -1.000000 0.000000
vn 0.000000 -1.000000 0.000000
vn 0.000000 -1.000000 0.000000
vn 0.803431 0.135446 -0.579787
vn 0.942898 0.132267 -0.305693
vn 0.583682 0.140004 -0.799822
vn 0.305472 0.141445 -0.941637
vn -0.000494 0.140604 -0.990066
vn -0.304404 0.141554 -0.941966
vn -0.580712 0.144009 -0.801271
vn -0.802020 0.143029 -0.579919
vn -0.942549 0.138978 -0.303788
vn -0.990608 0.136735 0.000276
vn -0.942431 0.137701 0.304734
vn -0.801594 0.139674 0.581325
vn -0.579992 0.138088 0.802833
vn -0.302608 0.132531 0.943856
vn 0.001991 0.127784 0.991800
vn 0.307009 0.125838 0.943351
vn 0.582946 0.125643 0.802737
vn 0.801212 0.127438 0.584653
vn 0.942269 0.130729 0.308283
vn 0.991240 0.132070 -0.000399
vn 0.888960 0.000000 -0.457984
vn 0.965565 0.000000 -0.260163
vn 0.680211 -0.000000 -0.733016
vn 0.300185 -0.000000 -0.953881
vn -0.091898 -0.000000 -0.995768
vn -0.163648 0.000000 -0.986519
vn -0.580122 0.000000 -0.814529
vn -0.877569 0.000000 -0.479451
vn -0.986945 0.000000 -0.161059
vn -0.997326 0.000000 0.073080
vn -0.986386 0.000000 0.164448
vn -0.812151 0.000000 0.583447
vn -0.470695 0.000000 0.882296
vn -0.160049 -0.000000 0.987109
vn 0.151377 -0.000000 0.988476
vn 0.430491 0.000000 0.902595
vn 0.532913 0.000000 0.846170
vn 0.710599 0.000000 0.703598
vn 0.902480 0.000000 0.430731
vn 0.999986 0.000000 -0.005267
vn -0.593714 0.751644 -0.287290
vn -0.531449 0.801773 -0.273355
vn -0.589468 0.755326 -0.286373
vn -0.237869 0.971206 0.013332
vn -0.237869 0.971206 0.013332
vn -0.237869 0.971206 0.013332
vn 0.097265 0.889725 0.446015
vn 0.097265 0.889725 0.446015
vn 0.097265 0.889725 0.446015
vn -0.033930 0.997666 -0.059252
vn -0.033929 0.997620 0.060028
vn -0.033880 0.996204 -0.080187
vn -0.033509 0.985271 -0.167686
vn 0.123830 0.791393 -0.598635
vn 0.123830 0.791393 -0.598635
vn 0.123830 0.791393 -0.598635
vn -0.157334 0.942887 -0.293615
vn -0.157334 0.942887 -0.293615
vn -0.157334 0.942887 -0.293615
vn -0.516231 0.856438 0.004541
vn -0.516231 0.856438 0.004541
vn -0.516231 0.856438 0.004541
vn 0.104659 0.981674 -0.159259
vn -0.085711 0.983462 -0.159549
vn 0.098401 0.979177 -0.177568
vn 0.106547 0.971670 -0.210961
vn 0.037581 0.971662 -0.233368
vn -0.318476 0.848258 -0.423122
vn -0.354914 0.805809 -0.474034
vn -0.331466 0.833920 -0.441257
vn -0.289955 0.876908 -0.383352
vn -0.087744 0.954749 0.284176
vn -0.087744 0.954749 0.284176
vn -0.087744 0.954749 0.284176
vn -0.090728 0.987225 -0.130975
vn -0.090728 0.987225 -0.130975
vn -0.090728 0.987225 -0.130975
vn 0.085943 0.798235 -0.596183
vn 0.085943 0.798235 -0.596183
vn 0.085943 0.798235 -0.596183
vn -0.194943 0.928143 -0.317092
vn -0.148698 0.925167 -0.349221
vn -0.181865 0.928847 -0.322752
vn -0.211878 0.928786 -0.304080
vn -0.185495 0.931247 -0.313642
vn -0.524536 0.806855 -0.271747
s 1
g DirenniTowerCollisionMesh
usemtl initialShadingGroup
f 1/21/1 2/22/2 22/43/3 21/42/4
f 2/22/2 3/23/5 23/44/6 22/43/3
f 3/23/5 4/24/7 24/45/8 23/44/6
f 4/24/7 5/25/9 25/46/10 24/45/8
f 5/25/9 6/26/11 26/47/12 25/46/10
f 6/26/11 7/27/13 27/48/14 26/47/12
f 7/27/13 8/28/15 28/49/16 27/48/14
f 8/28/15 9/29/17 29/50/18 28/49/16
f 9/29/17 10/30/19 30/51/20 29/50/18
f 10/30/19 11/31/21 31/52/22 30/51/20
f 11/31/21 12/32/23 32/53/24 31/52/22
f 12/32/23 13/33/25 33/54/26 32/53/24
f 13/33/25 14/34/27 34/55/28 33/54/26
f 14/34/27 15/35/29 35/56/30 34/55/28
f 15/35/29 16/36/31 36/57/32 35/56/30
f 16/36/31 17/37/33 37/58/34 36/57/32
f 17/37/33 18/38/35 38/59/36 37/58/34
f 18/38/35 19/39/37 39/60/38 38/59/36
f 19/39/37 20/40/39 40/61/40 39/60/38
f 20/40/39 1/41/1 21/62/4 40/61/40
s 2
f 2/2/41 1/1/42 41/83/43
f 3/3/44 2/2/41 41/83/43
f 4/4/45 3/3/44 41/83/43
f 5/5/46 4/4/45 41/83/43
f 6/6/47 5/5/46 41/83/43
f 7/7/48 6/6/47 41/83/43
f 8/8/49 7/7/48 41/83/43
f 9/9/50 8/8/49 41/83/43
f 10/10/51 9/9/50 41/83/43
f 11/11/52 10/10/51 41/83/43
f 12/12/53 11/11/52 41/83/43
f 13/13/54 12/12/53 41/83/43
f 14/14/55 13/13/54 41/83/43
f 15/15/56 14/14/55 41/83/43
f 16/16/57 15/15/56 41/83/43
f 17/17/58 16/16/57 41/83/43
f 18/18/59 17/17/58 41/83/43
f 19/19/60 18/18/59 41/83/43
f 20/20/61 19/19/60 41/83/43
f 1/1/42 20/20/61 41/83/43
s 1
f 21/81/4 22/80/3 43/85/62 42/84/63
f 22/80/3 23/79/6 44/86/64 43/85/62
f 23/79/6 24/78/8 45/87/65 44/86/64
f 24/78/8 25/77/10 46/88/66 45/87/65
f 25/77/10 26/76/12 47/89/67 46/88/66
f 26/76/12 27/75/14 48/90/68 47/89/67
f 27/75/14 28/74/16 49/91/69 48/90/68
f 28/74/16 29/73/18 50/92/70 49/91/69
f 29/73/18 30/72/20 51/93/71 50/92/70
f 30/72/20 31/71/22 52/94/72 51/93/71
f 31/71/22 32/70/24 53/95/73 52/94/72
f 32/70/24 33/69/26 54/96/74 53/95/73
f 33/69/26 34/68/28 55/97/75 54/96/74
f 34/68/28 35/67/30 56/98/76 55/97/75
f 35/67/30 36/66/32 57/99/77 56/98/76
f 36/66/32 37/65/34 58/100/78 57/99/77
f 37/65/34 38/64/36 59/101/79 58/100/78
f 38/64/36 39/63/38 60/102/80 59/101/79
f 39/63/38 40/82/40 61/103/81 60/102/80
f 40/82/40 21/81/4 42/84/63 61/103/81
f 42/84/63 43/85/62 74/116/82 75/117/83
f 43/85/62 44/86/64 73/115/84 74/116/82
f 44/86/64 45/87/65 72/114/85 73/115/84
f 45/87/65 46/88/66 71/113/86 72/114/85
f 46/88/66 47/89/67 70/112/87 71/113/86
f 47/89/67 48/90/68 69/111/88 70/112/87
f 48/90/68 49/91/69 68/110/89 69/111/88
f 49/91/69 50/92/70 67/109/90 68/110/89
f 50/92/70 51/93/71 66/108/91 67/109/90
f 51/93/71 52/94/72 65/107/92 66/108/91
f 52/94/72 53/95/73 64/106/93 65/107/92
f 53/95/73 54/96/74 63/105/94 64/106/93
f 54/96/74 55/97/75 62/104/95 63/105/94
f 55/97/75 56/98/76 81/123/96 62/104/95
f 56/98/76 57/99/77 80/122/97 81/123/96
f 57/99/77 58/100/78 79/121/98 80/122/97
f 58/100/78 59/101/79 78/120/99 79/121/98
f 59/101/79 60/102/80 77/119/100 78/120/99
f 60/102/80 61/103/81 76/118/101 77/119/100
f 61/103/81 42/84/63 75/117/83 76/118/101
s 3
f 63/124/102 62/125/103 82/126/104
s off
f 64/127/105 63/128/106 82/129/107
f 65/130/108 64/131/109 82/132/110
s 4
f 66/133/111 65/134/112 82/135/113
f 67/136/114 66/137/111 82/138/113
s off
f 68/139/115 67/140/116 82/141/117
f 69/142/118 68/143/119 82/144/120
f 70/145/121 69/146/122 82/147/123
s 5
f 71/148/124 70/149/125 82/150/126
f 72/151/127 71/152/124 82/153/126
f 73/154/128 72/155/127 82/156/126
s 6
f 74/157/129 73/158/130 82/159/131
f 75/160/132 74/161/129 82/162/131
s off
f 76/163/133 75/164/134 82/165/135
f 77/166/136 76/167/137 82/168/138
f 78/169/139 77/170/140 82/171/141
s 7
f 79/172/142 78/173/143 82/174/144
f 80/175/145 79/176/142 82/177/144
f 81/178/146 80/179/145 82/180/144
s 3
f 62/181/103 81/182/147 82/183/104
